<svg xmlns="http://www.w3.org/2000/svg" xmlns:xlink="http://www.w3.org/1999/xlink" height="149.515" width="240" version="1"><title>Spb Python Interest Group Logo</title><defs><linearGradient id="b"><stop offset="0" stop-color="#5a9fd4"/><stop offset="1" stop-color="#306998"/></linearGradient><linearGradient xlink:href="#a" id="d" gradientUnits="userSpaceOnUse" gradientTransform="matrix(2.5362 0 0 2.5607 209.302 2765.593)" x1="150.961" y1="192.352" x2="112.031" y2="137.273"/><linearGradient id="a"><stop offset="0" stop-color="#ffd43b"/><stop offset="1" stop-color="#ffe873"/></linearGradient><linearGradient xlink:href="#b" id="c" gradientUnits="userSpaceOnUse" gradientTransform="matrix(2.5362 0 0 2.5607 209.302 2765.593)" x1="26.649" y1="20.604" x2="135.665" y2="114.398"/></defs><path d="M150.395 110.012v9.17H212.5V97.454L161.83 29.87l-2.947 2.121-1.2-.14h.05l15.305-13.179-.224-.327-4.548 3.8-4.49-.501-.248.415 4.304.456-11.056 9.298-28.997-3.471 10.32-10.596 4.155.513.406-.538-4.018-.517 4.189-4.184-.481-.519-15.557 15.71-1.467-2.905-2.597 2.43 5.437 11.202.02.038c8.783 18.7 17.555 38.54 22.209 58.479m-75.977 0C77.936 77.51 88.925 56.79 98.062 36.668l-2.794-3.102-1.144 2.424-.449-.074-.004-.005-13.487-13.6-.197.435 3.348 3.426-4.106-1.037.304.458 4.307 1.079 8.936 9.15-34.19-5.933-9.913-10.512 3.302.64-.191-.388-3.513-.672-3.457-3.54-.215.457 13.156 13.88-1.629-.277-2.113-2.424L12.5 97.454v21.729h61.918v-9.17" fill="#306998"/><path d="M55.93 30.453l40.87 7-31.501 60H18.936z" style="marker:none" color="#000" overflow="visible" fill="#2f5f86"/><path d="M159.097 32.444l47.278 65.01h-44.127l-34.837-68.571z" style="marker:none" color="#000" overflow="visible" fill="#3a76a6"/><path d="M110.315 42.057c-5.411.247-11.201.625-15.825 3.707-2.937 2.292-3.729 6.268-3.501 9.812-.015 2.445-.068 4.897.156 7.335-3.959-.04-8.232-.442-11.915 1.322-4.27 2.106-7.208 6.428-7.966 11.103-1.96 8.123-1.42 16.99 2.109 24.608 1.896 3.65 5.696 6.39 9.892 6.391 2.574.153 5.15-.057 7.724-.01.08 3.75-.294 7.598.534 11.28 1.61 4.596 6.178 7.293 10.683 8.523 8.932 2.727 19.18 1.923 27.137-3.09 3.147-2.288 5.015-6.251 4.525-10.15-.04-2.196.119-4.4-.131-6.588 2.636.088 5.295.062 7.94.012 2.161-.005 4.392-.444 6.094-1.828 3.013-2.215 4.369-5.902 5.554-9.318 2.184-6.723 1.89-14.05.05-20.809-.997-4.16-2.999-8.591-7.057-10.523-3.561-1.629-7.611-.783-11.4-.953-1.14.327-1.141-.511-1.045-1.403-.053-3.294.213-6.674-.504-9.902-1.667-5.162-6.87-8.536-12.154-8.941a59.673 59.673 0 0 0-10.9-.579z" fill="#fff"/><path d="M524.49 2818.357c-20.665.095-40.4 1.858-57.765 4.931-51.154 9.038-60.441 27.953-60.441 62.837v46.071h120.883v15.357h-166.25c-35.132 0-65.895 21.117-75.517 61.288-11.1 46.045-11.591 74.777 0 122.856 8.593 35.788 29.113 61.287 64.246 61.287h41.562v-55.229c0-39.9 34.522-75.094 75.517-75.094h120.743c33.61 0 60.442-27.674 60.442-61.429v-115.107c0-32.76-27.637-57.37-60.442-62.837-20.766-3.457-42.312-5.027-62.978-4.931zm-65.373 37.054c12.487 0 22.684 10.364 22.684 23.106 0 12.698-10.197 22.965-22.684 22.965-12.53 0-22.683-10.267-22.683-22.965 0-12.742 10.152-23.106 22.683-23.106z" fill="url(#c)" transform="translate(27.346 -411.017) scale(.16143)"/><path d="M662.985 2947.553v53.68c0 41.616-35.283 76.644-75.517 76.644H466.725c-33.073 0-60.441 28.306-60.441 61.428v115.107c0 32.76 28.487 52.03 60.441 61.428 38.266 11.252 74.96 13.285 120.743 0 30.433-8.811 60.442-26.544 60.442-61.428v-46.071H527.167v-15.357h181.185c35.132 0 48.224-24.505 60.442-61.287 12.62-37.867 12.084-74.281 0-122.857-8.682-34.974-25.265-61.287-60.442-61.287h-45.367zm-67.909 291.502c12.532 0 22.683 10.268 22.683 22.965 0 12.743-10.151 23.106-22.683 23.106-12.486 0-22.683-10.363-22.683-23.106 0-12.697 10.197-22.965 22.683-22.965z" fill="url(#d)" transform="translate(27.346 -411.017) scale(.16143)"/></svg>